<svg width="242" height="166" viewBox="0 0 242 166" fill="none" xmlns="http://www.w3.org/2000/svg">
<path d="M178.186 99.9897C178.194 108.387 176.382 116.692 172.865 124.374C169.349 132.056 164.206 138.945 157.767 144.6C155.975 146.174 154.092 147.649 152.126 149.016C149.603 150.771 146.947 152.34 144.181 153.712H144.152C143.562 154.01 142.963 154.294 142.359 154.569C142.083 154.699 141.813 154.821 141.532 154.942C139.783 155.715 137.988 156.409 136.148 157.024C134.698 157.49 133.21 157.956 131.707 158.338C123.036 160.561 113.973 160.972 105.125 159.544C104.076 159.377 103.042 159.186 102.012 158.967L101.142 158.776C98.516 158.184 95.9329 157.428 93.4092 156.512C91.9431 155.981 90.5061 155.398 89.0981 154.765C88.5519 154.518 88.0058 154.266 87.4693 154.005C87.102 153.828 86.7395 153.647 86.377 153.465C76.5431 148.487 68.2584 141.079 62.3714 132.001C56.4843 122.922 53.2064 112.498 52.8733 101.796C52.5402 91.0947 55.1639 80.5 60.4757 71.0973C65.7875 61.6946 73.5965 53.8215 83.1032 48.2843C92.6098 42.7471 103.473 39.7449 114.579 39.5848C125.685 39.4248 136.636 42.1127 146.31 47.3735C155.984 52.6342 164.034 60.2787 169.635 69.5241C175.236 78.7696 178.187 89.2837 178.186 99.9897Z" fill="url(#paint0_linear_2_154)"/>
<path d="M131.939 104.36C135.931 108.32 147.559 123.73 147.559 123.73L140.416 133.825L133.993 113.77L131.939 104.36Z" fill="url(#paint1_linear_2_154)"/>
<path d="M144.152 153.744C143.562 154.043 142.963 154.327 142.359 154.602C142.083 154.732 141.813 154.853 141.532 154.974C139.783 155.748 137.988 156.442 136.148 157.057C134.698 157.522 133.21 157.988 131.707 158.37C123.036 160.593 113.973 161.005 105.125 159.577C104.076 159.409 103.042 159.218 102.012 158.999C98.2424 161.505 94.7625 163.625 92.4572 164.589L92.6457 163.038L93.4286 156.549L95.241 141.451L102.423 134.756L86.2757 135.963C86.2757 135.963 87.9721 113.276 94.5934 108.608C101.215 103.941 108.16 99.7569 108.16 99.7569C108.989 100.284 109.901 100.676 110.862 100.917C113.158 101.529 115.545 101.764 117.923 101.611C120.755 101.486 123.587 98.9463 123.722 98.8159C123.722 98.8159 128.169 99.6684 131.939 104.378C133.819 106.803 135.169 109.57 135.907 112.512C136.835 115.955 138.483 123.995 140.358 133.708C141.586 139.96 142.876 146.892 144.152 153.744Z" fill="url(#paint2_linear_2_154)"/>
<path d="M147.559 123.748L154.451 131.533L178.689 108.343L179.607 103.596L184.441 99.5474L182.29 105.72V113.761C182.29 113.761 163.595 142.969 158.443 144.474C152.417 146.24 140.426 133.815 140.426 133.815L147.559 123.748Z" fill="url(#paint3_linear_2_154)"/>
<path d="M122.398 134.393L128.019 147.437L135.283 144.427L129.957 131.663L122.398 134.393Z" fill="#7E57C2"/>
<path d="M130.228 142.82C129.324 143.538 127.976 143.37 126.303 143.454C124.057 143.511 121.902 144.325 120.214 145.755C117.966 147.577 111.683 152.342 105.4 156.693C104.26 157.48 103.119 158.258 102.017 159.022C98.2473 161.529 94.7675 163.648 92.4621 164.613C91.856 164.903 91.2015 165.087 90.5289 165.158C87.3004 165.237 86.6092 158.715 86.4111 153.511C86.3483 151.783 86.3338 150.204 86.2999 149.063C86.1646 144.497 86.2999 136.019 86.2999 136.019L102.447 134.808L100.736 145.587L100.437 147.493V147.507L105.27 145.783L105.42 145.732L122.577 139.587L123.761 137.617L124.515 139.48H124.588L131.934 138.548C131.934 138.548 132.06 141.371 130.228 142.82Z" fill="url(#paint4_linear_2_154)"/>
<path d="M126.521 74.8342C126.1 73.7255 125.738 72.9708 125.632 72.7472V72.6913C125.632 72.6913 125.259 73.5765 122.456 73.3622C119.653 73.1479 118.725 71.8062 118.725 71.8062C118.725 71.8062 119.605 74.7131 116.265 75.9569C113.051 77.1588 111.785 76.3809 111.698 76.325C111.867 76.502 114.38 79.0921 112.713 81.1465C110.987 83.2754 107.106 82.8561 107.106 82.8561V82.8841C107.595 83.9502 108.142 84.9905 108.745 86.0006C109.064 86.5317 109.378 87.0208 109.711 87.4774V87.51C110.567 88.8521 111.723 89.9932 113.095 90.8501C112.492 94.2592 110.761 97.3886 108.16 99.771C109.035 100.211 109.937 100.599 110.862 100.931C112.664 101.588 115.086 102.24 117.246 102.059C119.749 101.801 122.062 100.651 123.732 98.8347L122.625 94.7399L121.63 91.0504C130.629 88.8376 128.154 79.2132 126.521 74.8342ZM121.127 91.1855L121.287 91.1482L121.543 91.0784C121.17 91.2338 120.776 91.3372 120.373 91.3857C120.581 91.3345 120.794 91.2787 121.016 91.2134L121.127 91.1855Z" fill="url(#paint5_linear_2_154)"/>
<path d="M131.939 72.5701C128.227 75.859 126.622 74.9319 126.521 74.8434V74.8341C126.1 73.7254 125.738 72.9707 125.636 72.7471L125.612 72.6912C125.612 72.6912 125.235 73.5763 122.432 73.362C119.629 73.1477 118.706 71.8061 118.706 71.8061C118.706 71.8061 119.585 74.713 116.246 75.9568C113.027 77.1587 111.76 76.3807 111.678 76.3248C111.847 76.4972 114.361 79.0873 112.693 81.1417C110.968 83.2706 107.087 82.856 107.087 82.856V82.8793C107.575 83.947 108.122 84.9889 108.725 86.0005C109.047 86.5284 109.37 87.0207 109.692 87.4772V87.5098C109.692 87.5098 108.368 90.0208 106.004 89.9695C103.641 89.9183 103.588 87.6403 103.588 87.6403C103.588 87.6403 101.915 90.5472 96.7487 87.7474C91.5822 84.9477 95.0281 80.8901 95.0281 80.8901C95.0281 80.8901 91.3647 78.1882 91.3647 74.14C91.3647 70.0918 97.0677 67.0125 97.0677 67.0125C97.0677 67.0125 95.0281 62.3121 98.4693 59.722C101.911 57.1319 107.082 58.8881 107.082 58.8881C107.082 58.8881 106.981 52.874 112.249 52.9719C117.517 53.0697 118.71 56.1769 118.71 56.1769C118.71 56.1769 123.447 52.6458 128.135 55.9719C132.823 59.2981 130.895 65.0979 130.895 65.0979C130.895 65.0979 135.81 69.1461 131.939 72.5701Z" fill="url(#paint6_linear_2_154)"/>
<path opacity="0.15" d="M122.664 94.7259C120.417 94.0411 116.42 91.4277 116.42 91.4277C117.997 91.5883 119.591 91.5066 121.142 91.1854L121.301 91.1482L121.611 91.0596H121.654L122.664 94.7259Z" fill="black"/>
<path opacity="0.15" d="M104.603 120.823L102.423 134.798L100.712 145.578L96.7295 148.769L105.395 145.736C105.395 145.736 103.148 139.55 104.603 120.823Z" fill="black"/>
<g filter="url(#filter0_d_2_154)">
<path d="M81.0561 10H55.2136C51.6475 10 48.7566 12.7864 48.7566 16.2237V41.1326C48.7566 44.5699 51.6475 47.3563 55.2136 47.3563H81.0561C84.6222 47.3563 87.5131 44.5699 87.5131 41.1326V16.2237C87.5131 12.7864 84.6222 10 81.0561 10Z" fill="#56CCF2"/>
</g>
<path d="M77.8318 27.3725H73.9032L76.9556 24.41L75.6273 23.1116L71.237 27.3725H69.3528V25.5438L73.743 21.283L72.4053 19.9937L69.3528 22.9562V19.1434H67.4686V22.9562L64.4162 19.9937L63.0784 21.283L67.4686 25.5438V27.3725H65.5844L61.1942 23.1116L59.8658 24.41L62.9183 27.3725H58.9897V29.2011H62.9183L59.8658 32.1636L61.1942 33.462L65.5844 29.2011H67.4686V31.0298L63.0784 35.2906L64.4162 36.5799L67.4686 33.6174V37.4302H69.3528V33.6174L72.4053 36.5799L73.743 35.2906L69.3528 31.0298V29.2011H71.237L75.6273 33.462L76.9556 32.1636L73.9032 29.2011H77.8318V27.3725Z" fill="white"/>
<g filter="url(#filter1_d_2_154)">
<path d="M214.705 98.1769H188.862C185.296 98.1769 182.405 100.964 182.405 104.401V129.31C182.405 132.747 185.296 135.534 188.862 135.534H214.705C218.271 135.534 221.162 132.747 221.162 129.31V104.401C221.162 100.964 218.271 98.1769 214.705 98.1769Z" fill="#F2C94C"/>
</g>
<path d="M210.668 113.721C210.668 109.149 206.9 105.492 202.19 105.492C197.479 105.492 193.711 109.149 193.711 113.721C193.711 116.555 195.218 119.116 197.479 120.578V122.864C197.479 124.053 198.233 125.059 199.363 125.424V125.607C199.363 127.162 200.588 128.35 202.19 128.35C203.791 128.35 205.016 127.162 205.016 125.607V125.424C206.146 125.059 206.9 124.053 206.9 122.864V120.578C209.161 119.116 210.668 116.555 210.668 113.721ZM195.595 113.721C195.595 110.155 198.515 107.321 202.19 107.321C205.864 107.321 208.784 110.155 208.784 113.721C208.784 116.921 206.335 119.573 203.132 120.03V117.744L204.733 116.19C205.11 115.824 205.11 115.275 204.733 114.91C204.356 114.544 203.791 114.544 203.414 114.91L202.19 116.098L200.965 114.91C200.588 114.544 200.023 114.544 199.646 114.91C199.269 115.275 199.269 115.824 199.646 116.19L201.247 117.744V120.03C198.044 119.573 195.595 116.921 195.595 113.721ZM202.19 126.522C201.624 126.522 201.247 126.156 201.247 125.607H203.132C203.132 126.156 202.755 126.522 202.19 126.522ZM205.016 122.864C205.016 123.413 204.639 123.779 204.074 123.779H200.305C199.74 123.779 199.363 123.413 199.363 122.864V121.493C200.211 121.767 201.153 121.95 202.19 121.95C203.226 121.95 204.168 121.767 205.016 121.493V122.864Z" fill="white"/>
<g filter="url(#filter2_d_2_154)">
<path d="M42.2995 98.1769H16.457C12.8909 98.1769 10 100.964 10 104.401V129.31C10 132.747 12.8909 135.534 16.457 135.534H42.2995C45.8656 135.534 48.7565 132.747 48.7565 129.31V104.401C48.7565 100.964 45.8656 98.1769 42.2995 98.1769Z" fill="#F58A8A"/>
</g>
<path d="M35.4368 113.721H34.4947V111.892C34.4947 109.369 32.3844 107.32 29.7842 107.32C27.184 107.32 25.0737 109.369 25.0737 111.892V113.721H24.1316C23.0952 113.721 22.2473 114.544 22.2473 115.55V124.693C22.2473 125.699 23.0952 126.522 24.1316 126.522H35.4368C36.4731 126.522 37.321 125.699 37.321 124.693V115.55C37.321 114.544 36.4731 113.721 35.4368 113.721ZM29.7842 121.95C28.7479 121.95 27.9 121.127 27.9 120.121C27.9 119.115 28.7479 118.293 29.7842 118.293C30.8205 118.293 31.6684 119.115 31.6684 120.121C31.6684 121.127 30.8205 121.95 29.7842 121.95ZM32.7047 113.721H26.8637V111.892C26.8637 110.329 28.1732 109.058 29.7842 109.058C31.3952 109.058 32.7047 110.329 32.7047 111.892V113.721Z" fill="white"/>
<g filter="url(#filter3_d_2_154)">
<path d="M172.31 10H146.468C142.902 10 140.011 12.7864 140.011 16.2237V41.1326C140.011 44.5699 142.902 47.3563 146.468 47.3563H172.31C175.876 47.3563 178.767 44.5699 178.767 41.1326V16.2237C178.767 12.7864 175.876 10 172.31 10Z" fill="#6FCF97"/>
</g>
<path d="M164.798 23.6205H149.412V32.953H164.798V23.6205Z" fill="white"/>
<path d="M168.945 25.4775L165.549 26.8628V29.7499L168.945 31.1352H170.177V25.4775H168.945Z" fill="white"/>
<defs>
<filter id="filter0_d_2_154" x="38.7566" y="0" width="68.7565" height="67.3563" filterUnits="userSpaceOnUse" color-interpolation-filters="sRGB">
<feFlood flood-opacity="0" result="BackgroundImageFix"/>
<feColorMatrix in="SourceAlpha" type="matrix" values="0 0 0 0 0 0 0 0 0 0 0 0 0 0 0 0 0 0 127 0" result="hardAlpha"/>
<feOffset dx="5" dy="5"/>
<feGaussianBlur stdDeviation="7.5"/>
<feColorMatrix type="matrix" values="0 0 0 0 0 0 0 0 0 0 0 0 0 0 0 0 0 0 0.15 0"/>
<feBlend mode="normal" in2="BackgroundImageFix" result="effect1_dropShadow_2_154"/>
<feBlend mode="normal" in="SourceGraphic" in2="effect1_dropShadow_2_154" result="shape"/>
</filter>
<filter id="filter1_d_2_154" x="172.405" y="88.1769" width="68.757" height="67.3568" filterUnits="userSpaceOnUse" color-interpolation-filters="sRGB">
<feFlood flood-opacity="0" result="BackgroundImageFix"/>
<feColorMatrix in="SourceAlpha" type="matrix" values="0 0 0 0 0 0 0 0 0 0 0 0 0 0 0 0 0 0 127 0" result="hardAlpha"/>
<feOffset dx="5" dy="5"/>
<feGaussianBlur stdDeviation="7.5"/>
<feColorMatrix type="matrix" values="0 0 0 0 0 0 0 0 0 0 0 0 0 0 0 0 0 0 0.15 0"/>
<feBlend mode="normal" in2="BackgroundImageFix" result="effect1_dropShadow_2_154"/>
<feBlend mode="normal" in="SourceGraphic" in2="effect1_dropShadow_2_154" result="shape"/>
</filter>
<filter id="filter2_d_2_154" x="0" y="88.1769" width="68.7565" height="67.3568" filterUnits="userSpaceOnUse" color-interpolation-filters="sRGB">
<feFlood flood-opacity="0" result="BackgroundImageFix"/>
<feColorMatrix in="SourceAlpha" type="matrix" values="0 0 0 0 0 0 0 0 0 0 0 0 0 0 0 0 0 0 127 0" result="hardAlpha"/>
<feOffset dx="5" dy="5"/>
<feGaussianBlur stdDeviation="7.5"/>
<feColorMatrix type="matrix" values="0 0 0 0 0 0 0 0 0 0 0 0 0 0 0 0 0 0 0.15 0"/>
<feBlend mode="normal" in2="BackgroundImageFix" result="effect1_dropShadow_2_154"/>
<feBlend mode="normal" in="SourceGraphic" in2="effect1_dropShadow_2_154" result="shape"/>
</filter>
<filter id="filter3_d_2_154" x="130.011" y="0" width="68.756" height="67.3563" filterUnits="userSpaceOnUse" color-interpolation-filters="sRGB">
<feFlood flood-opacity="0" result="BackgroundImageFix"/>
<feColorMatrix in="SourceAlpha" type="matrix" values="0 0 0 0 0 0 0 0 0 0 0 0 0 0 0 0 0 0 127 0" result="hardAlpha"/>
<feOffset dx="5" dy="5"/>
<feGaussianBlur stdDeviation="7.5"/>
<feColorMatrix type="matrix" values="0 0 0 0 0 0 0 0 0 0 0 0 0 0 0 0 0 0 0.15 0"/>
<feBlend mode="normal" in2="BackgroundImageFix" result="effect1_dropShadow_2_154"/>
<feBlend mode="normal" in="SourceGraphic" in2="effect1_dropShadow_2_154" result="shape"/>
</filter>
<linearGradient id="paint0_linear_2_154" x1="115.773" y1="46.1375" x2="113.782" y2="165.196" gradientUnits="userSpaceOnUse">
<stop stop-color="white" stop-opacity="0"/>
<stop offset="1" stop-color="#64B5F6" stop-opacity="0.6"/>
</linearGradient>
<linearGradient id="paint1_linear_2_154" x1="127.207" y1="100.358" x2="143.543" y2="130.14" gradientUnits="userSpaceOnUse">
<stop stop-color="#E57373"/>
<stop offset="1" stop-color="#AD1457"/>
</linearGradient>
<linearGradient id="paint2_linear_2_154" x1="26512.5" y1="36361.5" x2="24812" y2="45068.8" gradientUnits="userSpaceOnUse">
<stop stop-color="#E57373"/>
<stop offset="1" stop-color="#AD1457"/>
</linearGradient>
<linearGradient id="paint3_linear_2_154" x1="190.999" y1="111.124" x2="145.053" y2="138.739" gradientUnits="userSpaceOnUse">
<stop stop-color="#FFF8E1"/>
<stop offset="1" stop-color="#FFCC80"/>
</linearGradient>
<linearGradient id="paint4_linear_2_154" x1="20399.4" y1="20383.6" x2="17931.3" y2="18657" gradientUnits="userSpaceOnUse">
<stop stop-color="#FFF8E1"/>
<stop offset="1" stop-color="#FFCC80"/>
</linearGradient>
<linearGradient id="paint5_linear_2_154" x1="131.252" y1="79.5782" x2="106.005" y2="90.3655" gradientUnits="userSpaceOnUse">
<stop stop-color="#FFF8E1"/>
<stop offset="1" stop-color="#FFCC80"/>
</linearGradient>
<linearGradient id="paint6_linear_2_154" x1="125.395" y1="52.7948" x2="96.9212" y2="92.7093" gradientUnits="userSpaceOnUse">
<stop stop-color="#FFB74D"/>
<stop offset="1" stop-color="#F4511E"/>
</linearGradient>
</defs>
</svg>
